<svg xmlns="http://www.w3.org/2000/svg" viewBox="0 0 1700 1050" font-family="Segoe UI, Arial, sans-serif">
  <defs>
    <linearGradient id="bgG" x1="0%" y1="0%" x2="100%" y2="100%">
      <stop offset="0%" stop-color="#f8faff"/><stop offset="100%" stop-color="#ecf0f8"/>
    </linearGradient>
    <linearGradient id="navyG" x1="0%" y1="0%" x2="0%" y2="100%">
      <stop offset="0%" stop-color="#002B5C"/><stop offset="100%" stop-color="#001a3a"/>
    </linearGradient>
    <linearGradient id="blueG" x1="0%" y1="0%" x2="0%" y2="100%">
      <stop offset="0%" stop-color="#4285F4"/><stop offset="100%" stop-color="#2b6ed9"/>
    </linearGradient>
    <linearGradient id="greenG" x1="0%" y1="0%" x2="0%" y2="100%">
      <stop offset="0%" stop-color="#34A853"/><stop offset="100%" stop-color="#1e7e34"/>
    </linearGradient>
    <linearGradient id="orangeG" x1="0%" y1="0%" x2="100%" y2="0%">
      <stop offset="0%" stop-color="#E86C00"/><stop offset="100%" stop-color="#FF8C2A"/>
    </linearGradient>
    <linearGradient id="tealG" x1="0%" y1="0%" x2="0%" y2="100%">
      <stop offset="0%" stop-color="#008080"/><stop offset="100%" stop-color="#006060"/>
    </linearGradient>
    <linearGradient id="purpleG" x1="0%" y1="0%" x2="0%" y2="100%">
      <stop offset="0%" stop-color="#7B1FA2"/><stop offset="100%" stop-color="#5c1580"/>
    </linearGradient>
    <linearGradient id="redG" x1="0%" y1="0%" x2="0%" y2="100%">
      <stop offset="0%" stop-color="#EA4335"/><stop offset="100%" stop-color="#c62828"/>
    </linearGradient>
    <linearGradient id="vertexG" x1="0%" y1="0%" x2="100%" y2="100%">
      <stop offset="0%" stop-color="#E3F2FD"/><stop offset="100%" stop-color="#BBDEFB"/>
    </linearGradient>
    <filter id="sh"><feDropShadow dx="2" dy="4" stdDeviation="6" flood-color="#00000018"/></filter>
    <filter id="shSm"><feDropShadow dx="1" dy="2" stdDeviation="3" flood-color="#00000012"/></filter>
    <filter id="shBig"><feDropShadow dx="3" dy="6" stdDeviation="10" flood-color="#00000020"/></filter>
    <marker id="arr" markerWidth="10" markerHeight="7" refX="9" refY="3.5" orient="auto"><path d="M0,0 L10,3.5 L0,7 L2.5,3.5Z" fill="#888"/></marker>
    <marker id="arrW" markerWidth="10" markerHeight="7" refX="9" refY="3.5" orient="auto"><path d="M0,0 L10,3.5 L0,7 L2.5,3.5Z" fill="#4285F4"/></marker>
    <marker id="arrD" markerWidth="10" markerHeight="7" refX="9" refY="3.5" orient="auto"><path d="M0,0 L10,3.5 L0,7 L2.5,3.5Z" fill="#bbb"/></marker>
  </defs>

  <!-- Background -->
  <rect width="1700" height="1050" fill="url(#bgG)"/>

  <!-- Title -->
  <rect x="0" y="0" width="1700" height="62" fill="url(#navyG)"/>
  <text x="48" y="40" font-size="22" font-weight="700" fill="white" letter-spacing="0.5">Agentic SDLC at Schwab — Persona-Based Orchestration Model</text>
  <text x="1660" y="40" text-anchor="end" font-size="11" fill="#ffffff80">Mphasis · March 2026</text>

  <!-- ═══════════════════════════════════════════════════════════════ -->
  <!--  LEFT SIDE — PERSONAS, all radiating into single Orchestrator   -->
  <!-- ═══════════════════════════════════════════════════════════════ -->

  <!-- ─── Persona: Business Analyst (top-left) ─── -->
  <g transform="translate(100,180)" filter="url(#shSm)">
    <circle cx="0" cy="0" r="44" fill="white" stroke="#E86C00" stroke-width="2.5"/>
    <circle cx="0" cy="-12" r="11" fill="none" stroke="#E86C00" stroke-width="2.2"/>
    <path d="M-17,20 Q-17,3 0,0 Q17,3 17,20" fill="none" stroke="#E86C00" stroke-width="2.2" stroke-linecap="round"/>
    <!-- clipboard -->
    <rect x="8" y="-5" width="12" height="15" rx="2" fill="none" stroke="#E86C00" stroke-width="1.4"/>
    <line x1="11" y1="1" x2="17" y2="1" stroke="#E86C00" stroke-width="1"/><line x1="11" y1="5" x2="16" y2="5" stroke="#E86C00" stroke-width="1"/>
    <text x="0" y="62" text-anchor="middle" font-size="13" font-weight="700" fill="#E86C00">Business Analyst</text>
    <text x="0" y="78" text-anchor="middle" font-size="10" fill="#999">Reviews BRDs &amp; Rules</text>
  </g>

  <!-- ─── Persona: Architect (mid-left-top) ─── -->
  <g transform="translate(100,370)" filter="url(#shSm)">
    <circle cx="0" cy="0" r="44" fill="white" stroke="#4285F4" stroke-width="2.5"/>
    <circle cx="0" cy="-12" r="11" fill="none" stroke="#4285F4" stroke-width="2.2"/>
    <path d="M-17,20 Q-17,3 0,0 Q17,3 17,20" fill="none" stroke="#4285F4" stroke-width="2.2" stroke-linecap="round"/>
    <!-- triangle ruler -->
    <path d="M7,-6 L19,10 L7,10 Z" fill="none" stroke="#4285F4" stroke-width="1.4"/>
    <text x="0" y="62" text-anchor="middle" font-size="13" font-weight="700" fill="#4285F4">Architect</text>
    <text x="0" y="78" text-anchor="middle" font-size="10" fill="#999">DDD &amp; API Design</text>
  </g>

  <!-- ─── Persona: Developer (center-left) ─── -->
  <g transform="translate(100,560)" filter="url(#shSm)">
    <circle cx="0" cy="0" r="44" fill="white" stroke="#34A853" stroke-width="2.5"/>
    <circle cx="0" cy="-12" r="11" fill="none" stroke="#34A853" stroke-width="2.2"/>
    <path d="M-17,20 Q-17,3 0,0 Q17,3 17,20" fill="none" stroke="#34A853" stroke-width="2.2" stroke-linecap="round"/>
    <!-- code brackets -->
    <text x="15" y="6" font-size="14" font-weight="700" fill="#34A853">&lt;/&gt;</text>
    <text x="0" y="62" text-anchor="middle" font-size="13" font-weight="700" fill="#34A853">Developer (SME)</text>
    <text x="0" y="78" text-anchor="middle" font-size="10" fill="#999">Reviews &amp; Validates Code</text>
  </g>

  <!-- ─── Persona: QA Engineer (mid-left-bottom) ─── -->
  <g transform="translate(100,750)" filter="url(#shSm)">
    <circle cx="0" cy="0" r="44" fill="white" stroke="#7B1FA2" stroke-width="2.5"/>
    <circle cx="0" cy="-12" r="11" fill="none" stroke="#7B1FA2" stroke-width="2.2"/>
    <path d="M-17,20 Q-17,3 0,0 Q17,3 17,20" fill="none" stroke="#7B1FA2" stroke-width="2.2" stroke-linecap="round"/>
    <!-- shield check -->
    <path d="M10,-6 L18,-2 L18,7 L14,11 L10,13 L6,11 L2,7 L2,-2 Z" fill="none" stroke="#7B1FA2" stroke-width="1.3"/>
    <path d="M7,3 L10,7 L16,0" fill="none" stroke="#7B1FA2" stroke-width="1.5" stroke-linecap="round"/>
    <text x="0" y="62" text-anchor="middle" font-size="13" font-weight="700" fill="#7B1FA2">QA Engineer</text>
    <text x="0" y="78" text-anchor="middle" font-size="10" fill="#999">Tests &amp; Validation</text>
  </g>

  <!-- ─── Persona: DevOps (bottom-left) ─── -->
  <g transform="translate(100,930)" filter="url(#shSm)">
    <circle cx="0" cy="0" r="44" fill="white" stroke="#008080" stroke-width="2.5"/>
    <circle cx="0" cy="-12" r="11" fill="none" stroke="#008080" stroke-width="2.2"/>
    <path d="M-17,20 Q-17,3 0,0 Q17,3 17,20" fill="none" stroke="#008080" stroke-width="2.2" stroke-linecap="round"/>
    <!-- gear -->
    <circle cx="14" cy="0" r="7" fill="none" stroke="#008080" stroke-width="1.5"/>
    <circle cx="14" cy="0" r="2.5" fill="#008080"/>
    <line x1="14" y1="-9" x2="14" y2="-7" stroke="#008080" stroke-width="1.5"/>
    <line x1="14" y1="7" x2="14" y2="9" stroke="#008080" stroke-width="1.5"/>
    <line x1="5" y1="0" x2="7" y2="0" stroke="#008080" stroke-width="1.5"/>
    <line x1="21" y1="0" x2="23" y2="0" stroke="#008080" stroke-width="1.5"/>
    <text x="0" y="62" text-anchor="middle" font-size="13" font-weight="700" fill="#008080">DevOps Engineer</text>
    <text x="0" y="78" text-anchor="middle" font-size="10" fill="#999">CI/CD &amp; Deploy</text>
  </g>

  <!-- ═══════════════════════════════════════════════════════════════ -->
  <!--  ARROWS: All personas → single Orchestrator                     -->
  <!-- ═══════════════════════════════════════════════════════════════ -->

  <!-- BA → Orchestrator (solid) + return (dashed) -->
  <path d="M150,170 C230,160 290,210 340,290" stroke="#E86C00" stroke-width="2" fill="none" marker-end="url(#arrW)"/>
  <path d="M335,300 C280,230 225,185 155,186" stroke="#E86C0060" stroke-width="1.4" fill="none" marker-end="url(#arrD)" stroke-dasharray="5,3"/>

  <!-- Architect → Orchestrator -->
  <path d="M150,365 C220,360 280,370 335,390" stroke="#4285F4" stroke-width="2" fill="none" marker-end="url(#arrW)"/>
  <path d="M330,400 C275,390 215,385 155,378" stroke="#4285F460" stroke-width="1.4" fill="none" marker-end="url(#arrD)" stroke-dasharray="5,3"/>

  <!-- Developer → Orchestrator -->
  <line x1="150" y1="555" x2="335" y2="480" stroke="#34A853" stroke-width="2" fill="none" marker-end="url(#arrW)"/>
  <line x1="330" y1="490" x2="155" y2="565" stroke="#34A85360" stroke-width="1.4" fill="none" marker-end="url(#arrD)" stroke-dasharray="5,3"/>

  <!-- QA → Orchestrator -->
  <path d="M150,740 C220,720 280,620 335,540" stroke="#7B1FA2" stroke-width="2" fill="none" marker-end="url(#arrW)"/>
  <path d="M330,550 C275,640 215,730 155,750" stroke="#7B1FA260" stroke-width="1.4" fill="none" marker-end="url(#arrD)" stroke-dasharray="5,3"/>

  <!-- DevOps → Orchestrator -->
  <path d="M150,920 C240,890 300,720 345,580" stroke="#008080" stroke-width="2" fill="none" marker-end="url(#arrW)"/>
  <path d="M340,590 C295,740 235,900 155,930" stroke="#00808060" stroke-width="1.4" fill="none" marker-end="url(#arrD)" stroke-dasharray="5,3"/>

  <!-- label on arrow cluster -->
  <text x="235" y="290" text-anchor="middle" font-size="9" fill="#E86C00" font-weight="600">approves</text>
  <text x="268" y="360" text-anchor="middle" font-size="9" fill="#4285F4" font-weight="600">reviews</text>
  <text x="250" y="510" text-anchor="middle" font-size="9" fill="#34A853" font-weight="600">validates</text>
  <text x="235" y="660" text-anchor="middle" font-size="9" fill="#7B1FA2" font-weight="600">tests</text>
  <text x="215" y="820" text-anchor="middle" font-size="9" fill="#008080" font-weight="600">deploys</text>

  <!-- ═══════════════════════════════════════════════════════════════ -->
  <!--  CENTRAL ORCHESTRATOR AGENT                                     -->
  <!-- ═══════════════════════════════════════════════════════════════ -->
  <g transform="translate(420,460)" filter="url(#shBig)">
    <rect x="-72" y="-100" width="144" height="200" rx="24" fill="white" stroke="#4285F4" stroke-width="3"/>
    <!-- Big robot face -->
    <rect x="-36" y="-82" width="72" height="54" rx="16" fill="url(#blueG)"/>
    <!-- Eyes -->
    <circle cx="-16" cy="-58" r="9" fill="white"/>
    <circle cx="16" cy="-58" r="9" fill="white"/>
    <circle cx="-16" cy="-58" r="4.5" fill="#222"/>
    <circle cx="16" cy="-58" r="4.5" fill="#222"/>
    <!-- Eye shine -->
    <circle cx="-13" cy="-61" r="2" fill="white" opacity="0.6"/>
    <circle cx="19" cy="-61" r="2" fill="white" opacity="0.6"/>
    <!-- Mouth -->
    <rect x="-18" y="-42" width="36" height="6" rx="3" fill="white" opacity="0.9"/>
    <!-- Antenna -->
    <line x1="0" y1="-82" x2="0" y2="-96" stroke="#4285F4" stroke-width="3"/>
    <circle cx="0" cy="-100" r="6" fill="#FBBC04" stroke="#FBBC04" stroke-width="1"/>
    <!-- Body lines -->
    <line x1="-30" y1="-15" x2="30" y2="-15" stroke="#E3F2FD" stroke-width="1"/>
    <!-- Labels -->
    <text x="0" y="8" text-anchor="middle" font-size="16" font-weight="800" fill="#002B5C">Orchestrator</text>
    <text x="0" y="28" text-anchor="middle" font-size="13" font-weight="600" fill="#4285F4">Agent</text>
    <text x="0" y="52" text-anchor="middle" font-size="9" fill="#888">Routes tasks to</text>
    <text x="0" y="64" text-anchor="middle" font-size="9" fill="#888">sub-agents &amp; tools</text>
    <text x="0" y="80" text-anchor="middle" font-size="9" fill="#888">via invocation context</text>
  </g>

  <!-- ═══════════════════════════════════════════════════════════════ -->
  <!--  ARROWS: Orchestrator → Sub-Agents (fan right)                  -->
  <!-- ═══════════════════════════════════════════════════════════════ -->

  <!-- → Requirements Agent -->
  <path d="M498,390 C540,350 570,285 598,250" stroke="#E86C00" stroke-width="2" fill="none" marker-end="url(#arrW)"/>
  <!-- → Design Agent -->
  <path d="M498,420 C545,410 570,390 598,375" stroke="#4285F4" stroke-width="2" fill="none" marker-end="url(#arrW)"/>
  <!-- → CodeGen Agent -->
  <line x1="498" y1="460" x2="598" y2="480" stroke="#34A853" stroke-width="2" marker-end="url(#arrW)"/>
  <!-- → Testing Agent -->
  <path d="M498,500 C545,520 570,560 598,590" stroke="#7B1FA2" stroke-width="2" fill="none" marker-end="url(#arrW)"/>
  <!-- → Deploy Agent -->
  <path d="M498,530 C540,580 570,650 598,700" stroke="#008080" stroke-width="2" fill="none" marker-end="url(#arrW)"/>

  <text x="555" y="300" text-anchor="middle" font-size="9" fill="#888" font-style="italic">invocation</text>
  <text x="555" y="310" text-anchor="middle" font-size="9" fill="#888" font-style="italic">context</text>

  <!-- ═══════════════════════════════════════════════════════════════ -->
  <!--  SUB-AGENTS COLUMN                                              -->
  <!-- ═══════════════════════════════════════════════════════════════ -->

  <!-- Agent 1: Requirements -->
  <g transform="translate(680,240)" filter="url(#shSm)">
    <rect x="-76" y="-32" width="152" height="64" rx="12" fill="white" stroke="#E86C00" stroke-width="2"/>
    <rect x="-64" y="-20" width="26" height="20" rx="5" fill="#E86C00"/>
    <circle cx="-57" cy="-13" r="2.5" fill="white"/><circle cx="-45" cy="-13" r="2.5" fill="white"/>
    <rect x="-58" y="-6" width="12" height="2.5" rx="1" fill="white"/>
    <text x="8" y="-6" text-anchor="middle" font-size="11" font-weight="700" fill="#E86C00">Requirements</text>
    <text x="8" y="10" text-anchor="middle" font-size="10" fill="#666">Agent</text>
    <text x="0" y="24" text-anchor="middle" font-size="7.5" fill="#aaa">BRD · Gherkin · Rules</text>
  </g>

  <!-- Agent 2: Design -->
  <g transform="translate(680,370)" filter="url(#shSm)">
    <rect x="-76" y="-32" width="152" height="64" rx="12" fill="white" stroke="#4285F4" stroke-width="2"/>
    <rect x="-64" y="-20" width="26" height="20" rx="5" fill="#4285F4"/>
    <circle cx="-57" cy="-13" r="2.5" fill="white"/><circle cx="-45" cy="-13" r="2.5" fill="white"/>
    <rect x="-58" y="-6" width="12" height="2.5" rx="1" fill="white"/>
    <text x="8" y="-6" text-anchor="middle" font-size="11" font-weight="700" fill="#4285F4">Design</text>
    <text x="8" y="10" text-anchor="middle" font-size="10" fill="#666">Agent</text>
    <text x="0" y="24" text-anchor="middle" font-size="7.5" fill="#aaa">DDD · OpenAPI · Arch</text>
  </g>

  <!-- Agent 3: CodeGen -->
  <g transform="translate(680,490)" filter="url(#shSm)">
    <rect x="-76" y="-32" width="152" height="64" rx="12" fill="white" stroke="#34A853" stroke-width="2"/>
    <rect x="-64" y="-20" width="26" height="20" rx="5" fill="#34A853"/>
    <circle cx="-57" cy="-13" r="2.5" fill="white"/><circle cx="-45" cy="-13" r="2.5" fill="white"/>
    <rect x="-58" y="-6" width="12" height="2.5" rx="1" fill="white"/>
    <text x="8" y="-6" text-anchor="middle" font-size="11" font-weight="700" fill="#34A853">Code Gen</text>
    <text x="8" y="10" text-anchor="middle" font-size="10" fill="#666">Agent</text>
    <text x="0" y="24" text-anchor="middle" font-size="7.5" fill="#aaa">Spring · .NET Core · Java</text>
  </g>

  <!-- Agent 4: Testing -->
  <g transform="translate(680,600)" filter="url(#shSm)">
    <rect x="-76" y="-32" width="152" height="64" rx="12" fill="white" stroke="#7B1FA2" stroke-width="2"/>
    <rect x="-64" y="-20" width="26" height="20" rx="5" fill="#7B1FA2"/>
    <circle cx="-57" cy="-13" r="2.5" fill="white"/><circle cx="-45" cy="-13" r="2.5" fill="white"/>
    <rect x="-58" y="-6" width="12" height="2.5" rx="1" fill="white"/>
    <text x="8" y="-6" text-anchor="middle" font-size="11" font-weight="700" fill="#7B1FA2">Testing</text>
    <text x="8" y="10" text-anchor="middle" font-size="10" fill="#666">Agent</text>
    <text x="0" y="24" text-anchor="middle" font-size="7.5" fill="#aaa">Unit · Integration · E2E</text>
  </g>

  <!-- Agent 5: Deploy -->
  <g transform="translate(680,710)" filter="url(#shSm)">
    <rect x="-76" y="-32" width="152" height="64" rx="12" fill="white" stroke="#008080" stroke-width="2"/>
    <rect x="-64" y="-20" width="26" height="20" rx="5" fill="#008080"/>
    <circle cx="-57" cy="-13" r="2.5" fill="white"/><circle cx="-45" cy="-13" r="2.5" fill="white"/>
    <rect x="-58" y="-6" width="12" height="2.5" rx="1" fill="white"/>
    <text x="8" y="-6" text-anchor="middle" font-size="11" font-weight="700" fill="#008080">Deploy</text>
    <text x="8" y="10" text-anchor="middle" font-size="10" fill="#666">Agent</text>
    <text x="0" y="24" text-anchor="middle" font-size="7.5" fill="#aaa">CI/CD · PCF · K8s</text>
  </g>

  <!-- Vertical spec-flow arrows between sub-agents -->
  <line x1="680" y1="276" x2="680" y2="334" stroke="#ddd" stroke-width="1.5" marker-end="url(#arrD)"/>
  <line x1="680" y1="406" x2="680" y2="454" stroke="#ddd" stroke-width="1.5" marker-end="url(#arrD)"/>
  <line x1="680" y1="526" x2="680" y2="564" stroke="#ddd" stroke-width="1.5" marker-end="url(#arrD)"/>
  <line x1="680" y1="636" x2="680" y2="674" stroke="#ddd" stroke-width="1.5" marker-end="url(#arrD)"/>
  <!-- spec labels -->
  <text x="698" y="310" font-size="7.5" fill="#7B1FA2" font-weight="600">BRD Spec ↓</text>
  <text x="698" y="436" font-size="7.5" fill="#4285F4" font-weight="600">API Spec ↓</text>
  <text x="698" y="550" font-size="7.5" fill="#34A853" font-weight="600">Code ↓</text>
  <text x="698" y="660" font-size="7.5" fill="#7B1FA2" font-weight="600">Tests ↓</text>

  <!-- ═══════════════════════════════════════════════════════════════ -->
  <!--  ARROWS: Sub-Agents → MCP Servers (center-right)                -->
  <!-- ═══════════════════════════════════════════════════════════════ -->
  <path d="M760,240 L850,240" stroke="#E86C00" stroke-width="1.8" fill="none" marker-end="url(#arrW)"/>
  <path d="M760,370 L850,370" stroke="#4285F4" stroke-width="1.8" fill="none" marker-end="url(#arrW)"/>
  <path d="M760,490 L850,490" stroke="#34A853" stroke-width="1.8" fill="none" marker-end="url(#arrW)"/>
  <path d="M760,600 L850,600" stroke="#7B1FA2" stroke-width="1.8" fill="none" marker-end="url(#arrW)"/>
  <path d="M760,710 L850,710" stroke="#008080" stroke-width="1.8" fill="none" marker-end="url(#arrW)"/>

  <!-- ═══════════════════════════════════════════════════════════════ -->
  <!--  MCP SERVERS PANEL                                              -->
  <!-- ═══════════════════════════════════════════════════════════════ -->
  <g filter="url(#sh)">
    <rect x="862" y="120" width="220" height="720" rx="18" fill="white" stroke="#55555530" stroke-width="2"/>
    <!-- Header -->
    <rect x="862" y="120" width="220" height="48" rx="18" fill="#555"/>
    <rect x="862" y="148" width="220" height="20" fill="#555"/>
    <!-- Link icon -->
    <circle cx="892" cy="144" r="7" fill="none" stroke="white" stroke-width="1.5"/>
    <circle cx="904" cy="144" r="7" fill="none" stroke="white" stroke-width="1.5"/>
    <text x="920" y="150" font-size="15" font-weight="700" fill="white">MCP Servers</text>

    <!-- MCP 1: GitHub / Bitbucket -->
    <g transform="translate(972,215)">
      <rect x="-90" y="-30" width="180" height="60" rx="10" fill="#f6f8fa" stroke="#24292f" stroke-width="1.5"/>
      <!-- GitHub icon -->
      <circle cx="-58" cy="0" r="14" fill="#24292f"/>
      <!-- Octocat simplified -->
      <circle cx="-58" cy="-4" r="6" fill="white"/>
      <ellipse cx="-58" cy="5" rx="8" ry="4" fill="white"/>
      <text x="4" y="-4" text-anchor="middle" font-size="11" font-weight="700" fill="#24292f">GitHub /</text>
      <text x="4" y="12" text-anchor="middle" font-size="11" font-weight="700" fill="#24292f">Bitbucket</text>
    </g>

    <!-- MCP 2: Confluence -->
    <g transform="translate(972,320)">
      <rect x="-90" y="-30" width="180" height="60" rx="10" fill="#f0f4ff" stroke="#1868DB" stroke-width="1.5"/>
      <!-- Confluence icon -->
      <circle cx="-58" cy="0" r="14" fill="#1868DB"/>
      <text x="-58" y="5" text-anchor="middle" font-size="10" font-weight="700" fill="white">C</text>
      <text x="4" y="4" text-anchor="middle" font-size="12" font-weight="700" fill="#1868DB">Confluence</text>
    </g>

    <!-- MCP 3: Jira -->
    <g transform="translate(972,425)">
      <rect x="-90" y="-30" width="180" height="60" rx="10" fill="#f0f4ff" stroke="#0052CC" stroke-width="1.5"/>
      <circle cx="-58" cy="0" r="14" fill="#0052CC"/>
      <text x="-58" y="5" text-anchor="middle" font-size="10" font-weight="700" fill="white">J</text>
      <text x="4" y="4" text-anchor="middle" font-size="12" font-weight="700" fill="#0052CC">Jira</text>
    </g>

    <!-- MCP 4: Testing Tools -->
    <g transform="translate(972,530)">
      <rect x="-90" y="-30" width="180" height="60" rx="10" fill="#faf3ff" stroke="#7B1FA2" stroke-width="1.5"/>
      <circle cx="-58" cy="0" r="14" fill="#7B1FA2"/>
      <path d="M-64,-4 L-58,5 L-50,-6" fill="none" stroke="white" stroke-width="2" stroke-linecap="round"/>
      <text x="4" y="-4" text-anchor="middle" font-size="11" font-weight="700" fill="#7B1FA2">Selenium /</text>
      <text x="4" y="12" text-anchor="middle" font-size="11" font-weight="700" fill="#7B1FA2">Thousand Eyes</text>
    </g>

    <!-- MCP 5: CI/CD -->
    <g transform="translate(972,635)">
      <rect x="-90" y="-30" width="180" height="60" rx="10" fill="#e8f5f5" stroke="#008080" stroke-width="1.5"/>
      <circle cx="-58" cy="0" r="14" fill="#008080"/>
      <!-- Infinity / loop -->
      <path d="M-66,-3 Q-66,-9 -61,-9 Q-55,-9 -55,-3 Q-55,3 -61,3 Q-66,3 -66,-3" fill="none" stroke="white" stroke-width="1.5"/>
      <path d="M-55,-3 Q-55,-9 -50,-9 Q-44,-9 -44,-3 Q-44,3 -50,3 Q-55,3 -55,-3" fill="none" stroke="white" stroke-width="1.5"/>
      <text x="4" y="-4" text-anchor="middle" font-size="11" font-weight="700" fill="#008080">CI/CD</text>
      <text x="4" y="12" text-anchor="middle" font-size="11" font-weight="700" fill="#008080">Pipeline</text>
    </g>

    <!-- MCP 6: PCF / Kubernetes -->
    <g transform="translate(972,740)">
      <rect x="-90" y="-30" width="180" height="60" rx="10" fill="#e8f5f5" stroke="#006060" stroke-width="1.5"/>
      <circle cx="-58" cy="0" r="14" fill="#006060"/>
      <!-- Helm wheel simplified -->
      <circle cx="-58" cy="0" r="6" fill="none" stroke="white" stroke-width="1.5"/>
      <line x1="-58" y1="-10" x2="-58" y2="-6" stroke="white" stroke-width="1.5"/>
      <line x1="-58" y1="6" x2="-58" y2="10" stroke="white" stroke-width="1.5"/>
      <line x1="-68" y1="0" x2="-64" y2="0" stroke="white" stroke-width="1.5"/>
      <line x1="-52" y1="0" x2="-48" y2="0" stroke="white" stroke-width="1.5"/>
      <text x="4" y="-4" text-anchor="middle" font-size="11" font-weight="700" fill="#006060">PCF /</text>
      <text x="4" y="12" text-anchor="middle" font-size="11" font-weight="700" fill="#006060">Kubernetes</text>
    </g>
  </g>

  <!-- ═══════════════════════════════════════════════════════════════ -->
  <!--  ARROWS: Sub-Agents → Vertex AI Search (domain grounding)       -->
  <!-- ═══════════════════════════════════════════════════════════════ -->
  <!-- Requirements Agent → Vertex -->
  <path d="M756,220 C820,180 1050,150 1165,210" stroke="#E86C00" stroke-width="1.5" fill="none" marker-end="url(#arrW)" stroke-dasharray="6,3"/>
  <!-- Design Agent → Vertex -->
  <path d="M756,350 C860,310 1050,280 1165,260" stroke="#4285F4" stroke-width="1.5" fill="none" marker-end="url(#arrW)" stroke-dasharray="6,3"/>
  <!-- CodeGen Agent → Vertex -->
  <path d="M756,470 C860,420 1050,340 1165,310" stroke="#34A853" stroke-width="1.5" fill="none" marker-end="url(#arrW)" stroke-dasharray="6,3"/>
  <!-- Testing Agent → Vertex -->
  <path d="M756,580 C860,520 1050,400 1165,360" stroke="#7B1FA2" stroke-width="1.5" fill="none" marker-end="url(#arrW)" stroke-dasharray="6,3"/>
  <!-- Deploy Agent → Vertex -->
  <path d="M756,690 C860,630 1050,470 1165,420" stroke="#008080" stroke-width="1.5" fill="none" marker-end="url(#arrW)" stroke-dasharray="6,3"/>
  <text x="960" y="200" text-anchor="middle" font-size="9" fill="#E86C00" font-style="italic">queries domain</text>
  <text x="960" y="212" text-anchor="middle" font-size="9" fill="#E86C00" font-style="italic">knowledge</text>

  <!-- ═══════════════════════════════════════════════════════════════ -->
  <!--  VERTEX AI SEARCH PANEL                                         -->
  <!-- ═══════════════════════════════════════════════════════════════ -->
  <g filter="url(#sh)">
    <rect x="1170" y="120" width="490" height="440" rx="18" fill="white" stroke="#E86C0030" stroke-width="2"/>
    <!-- Header -->
    <rect x="1170" y="120" width="490" height="48" rx="18" fill="url(#orangeG)"/>
    <rect x="1170" y="148" width="490" height="20" fill="url(#orangeG)"/>
    <circle cx="1200" cy="144" r="10" fill="none" stroke="white" stroke-width="2"/>
    <line x1="1207" y1="151" x2="1215" y2="159" stroke="white" stroke-width="2.5" stroke-linecap="round"/>
    <text x="1228" y="150" font-size="15" font-weight="700" fill="white">Vertex AI Search — Domain Knowledge (GCS)</text>

    <!-- Source icons row -->
    <!-- Legacy Code -->
    <g transform="translate(1260,230)">
      <circle cx="0" cy="0" r="28" fill="#E3F2FD" stroke="#4285F4" stroke-width="1.5"/>
      <ellipse cx="0" cy="-8" rx="12" ry="5" fill="none" stroke="#4285F4" stroke-width="1.8"/>
      <path d="M-12,-8 L-12,6" stroke="#4285F4" stroke-width="1.8"/><path d="M12,-8 L12,6" stroke="#4285F4" stroke-width="1.8"/>
      <ellipse cx="0" cy="6" rx="12" ry="5" fill="none" stroke="#4285F4" stroke-width="1.8"/>
      <text x="0" y="44" text-anchor="middle" font-size="10" font-weight="600" fill="#555">Legacy Code</text>
      <text x="0" y="56" text-anchor="middle" font-size="8" fill="#aaa">COBOL · .NET · JCL</text>
    </g>

    <!-- BRDs & Docs -->
    <g transform="translate(1380,230)">
      <circle cx="0" cy="0" r="28" fill="#E8F5E9" stroke="#34A853" stroke-width="1.5"/>
      <rect x="-9" y="-14" width="18" height="24" rx="2" fill="none" stroke="#34A853" stroke-width="1.8"/>
      <line x1="-5" y1="-6" x2="5" y2="-6" stroke="#34A853" stroke-width="1.2"/>
      <line x1="-5" y1="0" x2="5" y2="0" stroke="#34A853" stroke-width="1.2"/>
      <line x1="-5" y1="6" x2="3" y2="6" stroke="#34A853" stroke-width="1.2"/>
      <text x="0" y="44" text-anchor="middle" font-size="10" font-weight="600" fill="#555">BRDs &amp; Docs</text>
      <text x="0" y="56" text-anchor="middle" font-size="8" fill="#aaa">Requirements</text>
    </g>

    <!-- Schemas -->
    <g transform="translate(1500,230)">
      <circle cx="0" cy="0" r="28" fill="#F3E5F5" stroke="#7B1FA2" stroke-width="1.5"/>
      <circle cx="0" cy="-8" r="4" fill="#7B1FA2"/>
      <line x1="0" y1="-4" x2="-10" y2="6" stroke="#7B1FA2" stroke-width="1.8"/>
      <line x1="0" y1="-4" x2="10" y2="6" stroke="#7B1FA2" stroke-width="1.8"/>
      <circle cx="-10" cy="8" r="4" fill="#7B1FA2"/><circle cx="10" cy="8" r="4" fill="#7B1FA2"/>
      <text x="0" y="44" text-anchor="middle" font-size="10" font-weight="600" fill="#555">Schemas</text>
      <text x="0" y="56" text-anchor="middle" font-size="8" fill="#aaa">Copybooks · DDL</text>
    </g>

    <!-- Test Cases -->
    <g transform="translate(1580,230)">
      <circle cx="0" cy="0" r="28" fill="#FFF3E0" stroke="#E86C00" stroke-width="1.5"/>
      <path d="M-10,0 L-3,10 L14,-10" fill="none" stroke="#E86C00" stroke-width="2.5" stroke-linecap="round"/>
      <text x="0" y="44" text-anchor="middle" font-size="10" font-weight="600" fill="#555">Test Cases</text>
      <text x="0" y="56" text-anchor="middle" font-size="8" fill="#aaa">Legacy Tests</text>
    </g>

    <!-- Connector lines to embeddings -->
    <path d="M1300,275 Q1340,340 1375,355" stroke="#bbb" stroke-width="1" fill="none" stroke-dasharray="4,3"/>
    <path d="M1420,275 Q1410,340 1395,355" stroke="#bbb" stroke-width="1" fill="none" stroke-dasharray="4,3"/>
    <path d="M1540,275 Q1480,340 1430,355" stroke="#bbb" stroke-width="1" fill="none" stroke-dasharray="4,3"/>

    <!-- Embeddings -->
    <g transform="translate(1400,380)">
      <path d="M0,-14 L3.5,-4 L14,-4 L5.5,2 L8,12 L0,6 L-8,12 L-5.5,2 L-14,-4 L-3.5,-4 Z" fill="#4285F4"/>
      <text x="22" y="-1" font-size="13" font-weight="700" fill="#4285F4">Embeddings</text>
      <text x="22" y="13" font-size="10" fill="#888">(Vectors)</text>
    </g>

    <!-- Arrow → Grounded Match -->
    <path d="M1400,400 L1400,436" stroke="#34A853" stroke-width="1.8" fill="none" marker-end="url(#arrW)"/>
    <text x="1400" y="434" text-anchor="middle" font-size="8" fill="#aaa">Vector Search</text>

    <!-- Grounded Match -->
    <g transform="translate(1400,485)">
      <rect x="-55" y="-25" width="110" height="50" rx="12" fill="#E8F5E9" stroke="#34A853" stroke-width="2"/>
      <path d="M-16,-6 L-8,6 L18,-12" fill="none" stroke="#34A853" stroke-width="3" stroke-linecap="round" stroke-linejoin="round"/>
      <text x="0" y="42" text-anchor="middle" font-size="12" font-weight="700" fill="#34A853">Grounded Match</text>
    </g>
  </g>

  <!-- ═══════════════════════════════════════════════════════════════ -->
  <!--  STATE BOX (bottom right)                                       -->
  <!-- ═══════════════════════════════════════════════════════════════ -->
  <g transform="translate(1415,680)" filter="url(#sh)">
    <rect x="-100" y="-44" width="200" height="88" rx="16" fill="white" stroke="#555" stroke-width="2"/>
    <!-- Folder -->
    <path d="M-24,-22 L-24,14 L24,14 L24,-12 L6,-12 L0,-22 Z" fill="none" stroke="#555" stroke-width="1.8" stroke-linejoin="round"/>
    <text x="0" y="60" text-anchor="middle" font-size="15" font-weight="700" fill="#333">Artifacts State</text>
    <text x="0" y="78" text-anchor="middle" font-size="10" fill="#888">BRDs · OpenAPI · Code · Tests · Deploys</text>
  </g>

  <!-- Arrow from Grounded Match → State -->
  <path d="M1415,540 L1415,632" stroke="#555" stroke-width="1.8" fill="none" marker-end="url(#arr)"/>

  <!-- Feedback loop: State → Orchestrator -->
  <path d="M1315,680 C1100,750 600,800 420,565" stroke="#bbb" stroke-width="1.5" fill="none" marker-end="url(#arrD)" stroke-dasharray="8,4"/>
  <text x="850" y="770" text-anchor="middle" font-size="10" fill="#aaa" font-weight="600">Feedback &amp; Iteration — Results route back through Orchestrator to appropriate persona</text>

  <!-- ═══════════════════════════════════════════════════════════════ -->
  <!--  SPEC-DRIVEN DEV BAR (right side, below Vertex)                 -->
  <!-- ═══════════════════════════════════════════════════════════════ -->
  <g filter="url(#shSm)">
    <rect x="1170" y="790" width="490" height="44" rx="8" fill="url(#purpleG)"/>
    <rect x="1180" y="800" width="14" height="18" rx="2" fill="none" stroke="white" stroke-width="1.3"/>
    <line x1="1184" y1="806" x2="1190" y2="806" stroke="white" stroke-width="0.8"/>
    <line x1="1184" y1="811" x2="1190" y2="811" stroke="white" stroke-width="0.8"/>
    <text x="1202" y="817" font-size="12" font-weight="700" fill="white">Spec-Driven Development — Formal Specs as contracts between agent phases</text>
  </g>

  <!-- PROGRAMS Legend (right side) -->
  <g filter="url(#shSm)">
    <rect x="1170" y="850" width="490" height="100" rx="12" fill="white" stroke="#002B5C20" stroke-width="1.5"/>
    <text x="1415" y="872" text-anchor="middle" font-size="12" font-weight="700" fill="#002B5C" letter-spacing="0.5">PROGRAMS</text>
    <line x1="1190" y1="880" x2="1640" y2="880" stroke="#002B5C15" stroke-width="1"/>

    <rect x="1190" y="892" width="8" height="24" rx="3" fill="#002B5C"/>
    <text x="1208" y="906" font-size="11" font-weight="700" fill="#002B5C">1 Bank Sweep</text>
    <text x="1208" y="920" font-size="9" fill="#888">COBOL → Spring Boot · Custom Agent</text>

    <rect x="1370" y="892" width="8" height="24" rx="3" fill="#4285F4"/>
    <text x="1388" y="906" font-size="11" font-weight="700" fill="#4285F4">2 RPS / SchwabPlan.com</text>
    <text x="1388" y="920" font-size="9" fill="#888">.NET → .NET Core · Lang + ADK</text>

    <rect x="1560" y="892" width="8" height="24" rx="3" fill="#008080"/>
    <text x="1578" y="906" font-size="11" font-weight="700" fill="#008080">3 O2 Batch</text>
    <text x="1578" y="920" font-size="9" fill="#888">COBOL → Spring Batch · Custom</text>
  </g>

  <!-- Human-in-the-loop badges (right side) -->
  <g filter="url(#shSm)">
    <rect x="1170" y="966" width="235" height="36" rx="6" fill="white" stroke="#34A853" stroke-width="1.5"/>
    <circle cx="1192" cy="984" r="8" fill="#34A85315" stroke="#34A853" stroke-width="1"/>
    <circle cx="1192" cy="981" r="3" fill="none" stroke="#34A853" stroke-width="1"/>
    <path d="M1187,988 Q1187,985 1192,984 Q1197,985 1197,988" fill="none" stroke="#34A853" stroke-width="1"/>
    <text x="1208" y="989" font-size="10" font-weight="600" fill="#34A853">Human-in-the-Loop: Mandatory</text>
  </g>

  <g filter="url(#shSm)">
    <rect x="1425" y="966" width="235" height="36" rx="6" fill="white" stroke="#FBBC04" stroke-width="1.5"/>
    <circle cx="1447" cy="984" r="8" fill="#FBBC0415" stroke="#FBBC04" stroke-width="1"/>
    <circle cx="1447" cy="981" r="3" fill="none" stroke="#FBBC04" stroke-width="1"/>
    <path d="M1442,988 Q1442,985 1447,984 Q1452,985 1452,988" fill="none" stroke="#FBBC04" stroke-width="1"/>
    <text x="1463" y="989" font-size="10" font-weight="600" fill="#b08900">Human-in-the-Loop: Recommended</text>
  </g>

  <!-- Footer -->
  <text x="1660" y="1040" text-anchor="end" font-size="10" fill="#bbb">© Mphasis 2026  |  Agentic SDLC at Charles Schwab  |  Proprietary &amp; Confidential</text>
</svg>
