<svg xmlns="http://www.w3.org/2000/svg" viewBox="0 0 1400 920" font-family="Segoe UI, Arial, sans-serif">

  <!-- Background -->
  <rect width="1400" height="920" fill="#f0f4f8"/>

  <!-- Title Bar -->
  <rect x="0" y="0" width="1400" height="56" fill="#002B5C"/>
  <text x="700" y="37" text-anchor="middle" fill="#ffffff" font-size="22" font-weight="bold">Bank Sweep Modernization  -  Greenfield Architecture via Chat UI / Studio</text>

  <!-- ═══════════ PERSONAS (top row, 7 boxes) ═══════════ -->
  <text x="560" y="88" text-anchor="middle" fill="#666666" font-size="13" font-weight="bold">PERSONAS</text>

  <!-- Product Owner -->
  <rect x="22" y="102" width="148" height="62" rx="10" fill="#8B0000"/>
  <text x="96" y="131" text-anchor="middle" fill="#ffffff" font-size="13" font-weight="bold">Product Owner</text>
  <text x="96" y="151" text-anchor="middle" fill="#f5c5c5" font-size="10">Vision and Priority</text>

  <!-- BA -->
  <rect x="182" y="102" width="148" height="62" rx="10" fill="#006BA6"/>
  <text x="256" y="131" text-anchor="middle" fill="#ffffff" font-size="13" font-weight="bold">Business Analyst</text>
  <text x="256" y="151" text-anchor="middle" fill="#c5dff5" font-size="10">Requirements</text>

  <!-- Architect -->
  <rect x="342" y="102" width="148" height="62" rx="10" fill="#008080"/>
  <text x="416" y="131" text-anchor="middle" fill="#ffffff" font-size="13" font-weight="bold">Architect</text>
  <text x="416" y="151" text-anchor="middle" fill="#b5ece2" font-size="10">Design</text>

  <!-- Developer -->
  <rect x="502" y="102" width="148" height="62" rx="10" fill="#007A33"/>
  <text x="576" y="131" text-anchor="middle" fill="#ffffff" font-size="13" font-weight="bold">Developer</text>
  <text x="576" y="151" text-anchor="middle" fill="#b5ebc5" font-size="10">Implementation</text>

  <!-- QA -->
  <rect x="662" y="102" width="148" height="62" rx="10" fill="#6B21A8"/>
  <text x="736" y="131" text-anchor="middle" fill="#ffffff" font-size="13" font-weight="bold">QA Engineer</text>
  <text x="736" y="151" text-anchor="middle" fill="#dcc5f5" font-size="10">Testing</text>

  <!-- Reviewer -->
  <rect x="822" y="102" width="148" height="62" rx="10" fill="#005a8c"/>
  <text x="896" y="131" text-anchor="middle" fill="#ffffff" font-size="13" font-weight="bold">Reviewer</text>
  <text x="896" y="151" text-anchor="middle" fill="#c5dff5" font-size="10">Code Review</text>

  <!-- DevOps -->
  <rect x="982" y="102" width="148" height="62" rx="10" fill="#E86C00"/>
  <text x="1056" y="131" text-anchor="middle" fill="#ffffff" font-size="13" font-weight="bold">DevOps</text>
  <text x="1056" y="151" text-anchor="middle" fill="#ffe0c0" font-size="10">Deployment</text>

  <!-- ═══════════ Arrows: Personas to Chat UI ═══════════ -->
  <line x1="96" y1="164" x2="96" y2="218" stroke="#8B0000" stroke-width="2"/>
  <polygon points="90,218 96,230 102,218" fill="#8B0000"/>
  <line x1="256" y1="164" x2="256" y2="218" stroke="#006BA6" stroke-width="2"/>
  <polygon points="250,218 256,230 262,218" fill="#006BA6"/>
  <line x1="416" y1="164" x2="416" y2="218" stroke="#008080" stroke-width="2"/>
  <polygon points="410,218 416,230 422,218" fill="#008080"/>
  <line x1="576" y1="164" x2="576" y2="218" stroke="#007A33" stroke-width="2"/>
  <polygon points="570,218 576,230 582,218" fill="#007A33"/>
  <line x1="736" y1="164" x2="736" y2="218" stroke="#6B21A8" stroke-width="2"/>
  <polygon points="730,218 736,230 742,218" fill="#6B21A8"/>
  <line x1="896" y1="164" x2="896" y2="218" stroke="#005a8c" stroke-width="2"/>
  <polygon points="890,218 896,230 902,218" fill="#005a8c"/>
  <line x1="1056" y1="164" x2="1056" y2="218" stroke="#E86C00" stroke-width="2"/>
  <polygon points="1050,218 1056,230 1062,218" fill="#E86C00"/>

  <text x="560" y="205" text-anchor="middle" fill="#006BA6" font-size="11" font-weight="bold" font-style="italic">Natural-Language Prompts</text>

  <!-- ═══════════ CHAT UI / STUDIO ═══════════ -->
  <rect x="22" y="232" width="1108" height="88" rx="14" fill="#1e1e2e"/>
  <!-- Sample prompt boxes -->
  <rect x="35" y="244" width="175" height="24" rx="6" fill="#3a3a55"/>
  <text x="44" y="261" fill="#aaaaaa" font-size="9">"Define product roadmap..."</text>
  <rect x="220" y="244" width="175" height="24" rx="6" fill="#3a3a55"/>
  <text x="229" y="261" fill="#aaaaaa" font-size="9">"Generate epics for sweep..."</text>
  <rect x="405" y="244" width="175" height="24" rx="6" fill="#3a3a55"/>
  <text x="414" y="261" fill="#aaaaaa" font-size="9">"Design microservice arch..."</text>
  <rect x="590" y="244" width="175" height="24" rx="6" fill="#3a3a55"/>
  <text x="599" y="261" fill="#aaaaaa" font-size="9">"Implement SweepScheduler..."</text>
  <rect x="775" y="244" width="175" height="24" rx="6" fill="#3a3a55"/>
  <text x="784" y="261" fill="#aaaaaa" font-size="9">"Generate BDD scenarios..."</text>
  <rect x="960" y="244" width="160" height="24" rx="6" fill="#3a3a55"/>
  <text x="969" y="261" fill="#aaaaaa" font-size="9">"Create CI/CD pipeline..."</text>

  <text x="565" y="293" text-anchor="middle" fill="#ffffff" font-size="22" font-weight="bold">Chat UI / Studio</text>
  <text x="565" y="312" text-anchor="middle" fill="#aaaabb" font-size="11">Single Interface for the Entire SDLC  |  Multi-turn Conversations  |  Iterative Refinement</text>

  <!-- ═══════════ KNOWLEDGE SOURCES (right panel) ═══════════ -->
  <text x="1275" y="88" text-anchor="middle" fill="#666666" font-size="12" font-weight="bold">KNOWLEDGE SOURCES</text>

  <!-- External Domain Artifacts -->
  <rect x="1155" y="102" width="230" height="86" rx="10" fill="#4A0E4E" stroke="#6B21A8" stroke-width="2"/>
  <text x="1270" y="124" text-anchor="middle" fill="#ffffff" font-size="12" font-weight="bold">External Domain Artifacts</text>
  <text x="1270" y="142" text-anchor="middle" fill="#e0c5f5" font-size="10">Industry Standards, BRDs</text>
  <text x="1270" y="157" text-anchor="middle" fill="#e0c5f5" font-size="10">Regulatory Requirements</text>
  <text x="1270" y="172" text-anchor="middle" fill="#e0c5f5" font-size="10">Domain Models, Reference Arch</text>

  <!-- Legacy Code Knowledge Base -->
  <rect x="1155" y="200" width="230" height="86" rx="10" fill="#1a3a1a" stroke="#007A33" stroke-width="2"/>
  <text x="1270" y="222" text-anchor="middle" fill="#ffffff" font-size="12" font-weight="bold">Legacy Code Knowledge Base</text>
  <text x="1270" y="240" text-anchor="middle" fill="#b5ebc5" font-size="10">COBOL / Mainframe Logic</text>
  <text x="1270" y="255" text-anchor="middle" fill="#b5ebc5" font-size="10">Business Rules Extraction</text>
  <text x="1270" y="270" text-anchor="middle" fill="#b5ebc5" font-size="10">Vertex AI Search Index</text>

  <!-- Connector: Knowledge Sources vertical line to merge point -->
  <line x1="1270" y1="286" x2="1270" y2="320" stroke="#999999" stroke-width="1.5"/>

  <!-- RAG / Retrieval box connecting knowledge to AI Agent -->
  <rect x="1175" y="320" width="190" height="44" rx="8" fill="#333355" stroke="#0096D6" stroke-width="2"/>
  <text x="1270" y="341" text-anchor="middle" fill="#ffffff" font-size="11" font-weight="bold">RAG / Retrieval Layer</text>
  <text x="1270" y="356" text-anchor="middle" fill="#aabbdd" font-size="9">Vertex AI Search + Embeddings</text>

  <!-- Arrow: RAG to AI Agent Engine (horizontal) -->
  <line x1="1175" y1="342" x2="935" y2="420" stroke="#0096D6" stroke-width="2"/>
  <polygon points="935,414 923,420 935,426" fill="#0096D6"/>
  <text x="1070" y="370" fill="#0096D6" font-size="10" font-weight="bold">Context + Retrieved Knowledge</text>

  <!-- ═══════════ Arrow: Chat UI to AI Agent ═══════════ -->
  <line x1="565" y1="320" x2="565" y2="372" stroke="#0096D6" stroke-width="3"/>
  <polygon points="557,372 565,386 573,372" fill="#0096D6"/>
  <text x="590" y="358" fill="#0096D6" font-size="11" font-weight="bold">Prompts</text>

  <!-- ═══════════ AI AGENT ENGINE ═══════════ -->
  <rect x="245" y="388" width="680" height="80" rx="14" fill="#006BA6"/>
  <text x="585" y="418" text-anchor="middle" fill="#ffffff" font-size="20" font-weight="bold">AI Agent Engine</text>
  <text x="585" y="438" text-anchor="middle" fill="#d0e8f8" font-size="11">LLM-Powered  |  Context-Aware  |  RAG-Augmented  |  Multi-Modal Generation</text>
  <text x="585" y="456" text-anchor="middle" fill="#d0e8f8" font-size="10">Code Gen  |  Document Gen  |  Test Gen  |  Config Gen  |  Diagram Gen  |  Review Analysis</text>

  <!-- ═══════════ Arrow: AI Agent to Artifacts ═══════════ -->
  <line x1="565" y1="468" x2="565" y2="504" stroke="#008080" stroke-width="3"/>
  <polygon points="557,504 565,518 573,504" fill="#008080"/>
  <text x="590" y="496" fill="#008080" font-size="11" font-weight="bold">Generates</text>

  <!-- ═══════════ GENERATED ARTIFACTS ═══════════ -->
  <text x="565" y="534" text-anchor="middle" fill="#666666" font-size="13" font-weight="bold">GENERATED ARTIFACTS</text>

  <!-- Artifact: Roadmap / Vision -->
  <rect x="8" y="548" width="152" height="58" rx="8" fill="#ffffff" stroke="#8B0000" stroke-width="2"/>
  <text x="84" y="568" text-anchor="middle" fill="#8B0000" font-size="11" font-weight="bold">Roadmap / Vision</text>
  <text x="84" y="583" text-anchor="middle" fill="#666666" font-size="9">Product Backlog</text>
  <text x="84" y="596" text-anchor="middle" fill="#666666" font-size="9">Priority, OKRs</text>

  <!-- Artifact: Epics -->
  <rect x="170" y="548" width="152" height="58" rx="8" fill="#ffffff" stroke="#006BA6" stroke-width="2"/>
  <text x="246" y="568" text-anchor="middle" fill="#006BA6" font-size="11" font-weight="bold">Epics and Stories</text>
  <text x="246" y="583" text-anchor="middle" fill="#666666" font-size="9">Acceptance Criteria</text>
  <text x="246" y="596" text-anchor="middle" fill="#666666" font-size="9">BRDs, Edge Cases</text>

  <!-- Artifact: Design -->
  <rect x="332" y="548" width="152" height="58" rx="8" fill="#ffffff" stroke="#008080" stroke-width="2"/>
  <text x="408" y="568" text-anchor="middle" fill="#008080" font-size="11" font-weight="bold">Design Artifacts</text>
  <text x="408" y="583" text-anchor="middle" fill="#666666" font-size="9">OpenAPI, DDD, ADRs</text>
  <text x="408" y="596" text-anchor="middle" fill="#666666" font-size="9">DB Schemas, Diagrams</text>

  <!-- Artifact: Code -->
  <rect x="494" y="548" width="152" height="58" rx="8" fill="#ffffff" stroke="#007A33" stroke-width="2"/>
  <text x="570" y="568" text-anchor="middle" fill="#007A33" font-size="11" font-weight="bold">Code</text>
  <text x="570" y="583" text-anchor="middle" fill="#666666" font-size="9">Spring Boot, JPA</text>
  <text x="570" y="596" text-anchor="middle" fill="#666666" font-size="9">Controllers, Services</text>

  <!-- Artifact: Tests -->
  <rect x="656" y="548" width="152" height="58" rx="8" fill="#ffffff" stroke="#6B21A8" stroke-width="2"/>
  <text x="732" y="568" text-anchor="middle" fill="#6B21A8" font-size="11" font-weight="bold">Test Suites</text>
  <text x="732" y="583" text-anchor="middle" fill="#666666" font-size="9">JUnit, BDD/Gherkin</text>
  <text x="732" y="596" text-anchor="middle" fill="#666666" font-size="9">Test Data, Coverage</text>

  <!-- Artifact: Review -->
  <rect x="818" y="548" width="152" height="58" rx="8" fill="#ffffff" stroke="#005a8c" stroke-width="2"/>
  <text x="894" y="568" text-anchor="middle" fill="#005a8c" font-size="11" font-weight="bold">Review Reports</text>
  <text x="894" y="583" text-anchor="middle" fill="#666666" font-size="9">Quality Analysis</text>
  <text x="894" y="596" text-anchor="middle" fill="#666666" font-size="9">PR Summaries</text>

  <!-- Artifact: DevOps -->
  <rect x="980" y="548" width="152" height="58" rx="8" fill="#ffffff" stroke="#E86C00" stroke-width="2"/>
  <text x="1056" y="568" text-anchor="middle" fill="#E86C00" font-size="11" font-weight="bold">DevOps Configs</text>
  <text x="1056" y="583" text-anchor="middle" fill="#666666" font-size="9">Dockerfiles, CI/CD</text>
  <text x="1056" y="596" text-anchor="middle" fill="#666666" font-size="9">K8s Manifests</text>

  <!-- ═══════════ Connectors: Artifacts to Review Gate ═══════════ -->
  <line x1="84" y1="606" x2="84" y2="630" stroke="#999999" stroke-width="1.5"/>
  <line x1="246" y1="606" x2="246" y2="630" stroke="#999999" stroke-width="1.5"/>
  <line x1="408" y1="606" x2="408" y2="630" stroke="#999999" stroke-width="1.5"/>
  <line x1="570" y1="606" x2="570" y2="630" stroke="#999999" stroke-width="1.5"/>
  <line x1="732" y1="606" x2="732" y2="630" stroke="#999999" stroke-width="1.5"/>
  <line x1="894" y1="606" x2="894" y2="630" stroke="#999999" stroke-width="1.5"/>
  <line x1="1056" y1="606" x2="1056" y2="630" stroke="#999999" stroke-width="1.5"/>

  <!-- ═══════════ HUMAN REVIEW GATE ═══════════ -->
  <rect x="40" y="630" width="1060" height="36" rx="18" fill="#ffffff" stroke="#E86C00" stroke-width="2"/>
  <text x="570" y="654" text-anchor="middle" fill="#E86C00" font-size="13" font-weight="bold">Human Review and Approval Gate  -  Every artifact reviewed before shipping</text>

  <!-- ═══════════ Arrows: Review Gate to Target Systems ═══════════ -->
  <line x1="200" y1="666" x2="140" y2="710" stroke="#006BA6" stroke-width="2"/>
  <polygon points="134,706 140,720 148,708" fill="#006BA6"/>
  <line x1="380" y1="666" x2="360" y2="710" stroke="#008080" stroke-width="2"/>
  <polygon points="354,706 360,720 368,708" fill="#008080"/>
  <line x1="570" y1="666" x2="570" y2="710" stroke="#006BA6" stroke-width="2"/>
  <polygon points="564,710 570,724 576,710" fill="#006BA6"/>
  <line x1="750" y1="666" x2="790" y2="710" stroke="#006BA6" stroke-width="2"/>
  <polygon points="784,706 790,720 798,708" fill="#006BA6"/>
  <line x1="940" y1="666" x2="1010" y2="710" stroke="#E86C00" stroke-width="2"/>
  <polygon points="1004,706 1010,720 1018,708" fill="#E86C00"/>

  <!-- ═══════════ TARGET SYSTEMS ═══════════ -->
  <text x="570" y="708" text-anchor="middle" fill="#666666" font-size="13" font-weight="bold">TARGET SYSTEMS</text>

  <!-- Jira -->
  <rect x="48" y="720" width="170" height="52" rx="10" fill="#002B5C"/>
  <text x="133" y="748" text-anchor="middle" fill="#ffffff" font-size="14" font-weight="bold">Jira</text>
  <text x="133" y="764" text-anchor="middle" fill="#aaaacc" font-size="10">Epics, Stories, Sprints</text>

  <!-- GitHub -->
  <rect x="268" y="720" width="170" height="52" rx="10" fill="#002B5C"/>
  <text x="353" y="748" text-anchor="middle" fill="#ffffff" font-size="14" font-weight="bold">GitHub</text>
  <text x="353" y="764" text-anchor="middle" fill="#aaaacc" font-size="10">Code, Specs, PRs</text>

  <!-- CI/CD -->
  <rect x="488" y="720" width="170" height="52" rx="10" fill="#002B5C"/>
  <text x="573" y="748" text-anchor="middle" fill="#ffffff" font-size="14" font-weight="bold">CI / CD</text>
  <text x="573" y="764" text-anchor="middle" fill="#aaaacc" font-size="10">Build, Test, Deploy</text>

  <!-- PCF / K8s -->
  <rect x="708" y="720" width="170" height="52" rx="10" fill="#002B5C"/>
  <text x="793" y="748" text-anchor="middle" fill="#ffffff" font-size="14" font-weight="bold">PCF / K8s</text>
  <text x="793" y="764" text-anchor="middle" fill="#aaaacc" font-size="10">Staging and Production</text>

  <!-- Grafana -->
  <rect x="928" y="720" width="170" height="52" rx="10" fill="#E86C00"/>
  <text x="1013" y="748" text-anchor="middle" fill="#ffffff" font-size="14" font-weight="bold">Grafana</text>
  <text x="1013" y="764" text-anchor="middle" fill="#ffe0c0" font-size="10">Observability</text>

  <!-- ═══════════ Knowledge Sources detail panel (bottom right) ═══════════ -->
  <rect x="1155" y="408" width="230" height="180" rx="10" fill="#f8f4ff" stroke="#6B21A8" stroke-width="1.5"/>
  <text x="1270" y="430" text-anchor="middle" fill="#4A0E4E" font-size="12" font-weight="bold">What Gets Retrieved</text>

  <text x="1168" y="452" fill="#333333" font-size="10" font-weight="bold">External Domain:</text>
  <text x="1172" y="466" fill="#666666" font-size="9">- Sweep compliance rules (SEC, FDIC)</text>
  <text x="1172" y="479" fill="#666666" font-size="9">- Industry reference architectures</text>
  <text x="1172" y="492" fill="#666666" font-size="9">- Cash management standards</text>

  <text x="1168" y="512" fill="#333333" font-size="10" font-weight="bold">Legacy Code KB:</text>
  <text x="1172" y="526" fill="#666666" font-size="9">- Existing sweep business rules</text>
  <text x="1172" y="539" fill="#666666" font-size="9">- Account linking logic (COBOL)</text>
  <text x="1172" y="552" fill="#666666" font-size="9">- Threshold calculation patterns</text>
  <text x="1172" y="565" fill="#666666" font-size="9">- Transaction reconciliation flows</text>
  <text x="1172" y="578" fill="#666666" font-size="9">- Error handling and edge cases</text>

  <!-- ═══════════ Footer ═══════════ -->
  <rect x="0" y="890" width="1400" height="30" fill="#002B5C"/>
  <text x="700" y="909" text-anchor="middle" fill="#aaaacc" font-size="11">Mphasis 2026  |  Bank Sweep Modernization  |  Greenfield + Knowledge Augmented  |  All Personas via Chat UI / Studio</text>

</svg>