<svg xmlns="http://www.w3.org/2000/svg" viewBox="0 0 1200 820" font-family="Segoe UI, Arial, sans-serif">

  <!-- Background -->
  <rect width="1200" height="820" fill="#f0f4f8"/>

  <!-- Title Bar -->
  <rect x="0" y="0" width="1200" height="56" fill="#002B5C"/>
  <text x="600" y="37" text-anchor="middle" fill="#ffffff" font-size="22" font-weight="bold">Bank Sweep Modernization  -  Pure Greenfield Architecture via Chat UI / Studio</text>

  <!-- PERSONAS label -->
  <text x="600" y="88" text-anchor="middle" fill="#666666" font-size="13" font-weight="bold">PERSONAS</text>

  <!-- BA -->
  <rect x="30" y="102" width="168" height="62" rx="10" fill="#006BA6"/>
  <text x="114" y="131" text-anchor="middle" fill="#ffffff" font-size="14" font-weight="bold">Business Analyst</text>
  <text x="114" y="151" text-anchor="middle" fill="#c5dff5" font-size="11">Requirements</text>

  <!-- Architect -->
  <rect x="222" y="102" width="168" height="62" rx="10" fill="#008080"/>
  <text x="306" y="131" text-anchor="middle" fill="#ffffff" font-size="14" font-weight="bold">Architect</text>
  <text x="306" y="151" text-anchor="middle" fill="#b5ece2" font-size="11">Design</text>

  <!-- Developer -->
  <rect x="414" y="102" width="168" height="62" rx="10" fill="#007A33"/>
  <text x="498" y="131" text-anchor="middle" fill="#ffffff" font-size="14" font-weight="bold">Developer</text>
  <text x="498" y="151" text-anchor="middle" fill="#b5ebc5" font-size="11">Implementation</text>

  <!-- QA -->
  <rect x="606" y="102" width="168" height="62" rx="10" fill="#6B21A8"/>
  <text x="690" y="131" text-anchor="middle" fill="#ffffff" font-size="14" font-weight="bold">QA Engineer</text>
  <text x="690" y="151" text-anchor="middle" fill="#dcc5f5" font-size="11">Testing</text>

  <!-- Reviewer -->
  <rect x="798" y="102" width="168" height="62" rx="10" fill="#005a8c"/>
  <text x="882" y="131" text-anchor="middle" fill="#ffffff" font-size="14" font-weight="bold">Reviewer</text>
  <text x="882" y="151" text-anchor="middle" fill="#c5dff5" font-size="11">Code Review</text>

  <!-- DevOps -->
  <rect x="990" y="102" width="168" height="62" rx="10" fill="#E86C00"/>
  <text x="1074" y="131" text-anchor="middle" fill="#ffffff" font-size="14" font-weight="bold">DevOps</text>
  <text x="1074" y="151" text-anchor="middle" fill="#ffe0c0" font-size="11">Deployment</text>

  <!-- Arrows: Personas to Chat UI -->
  <line x1="114" y1="164" x2="114" y2="218" stroke="#006BA6" stroke-width="2"/>
  <polygon points="108,218 114,230 120,218" fill="#006BA6"/>
  <line x1="306" y1="164" x2="306" y2="218" stroke="#006BA6" stroke-width="2"/>
  <polygon points="300,218 306,230 312,218" fill="#006BA6"/>
  <line x1="498" y1="164" x2="498" y2="218" stroke="#006BA6" stroke-width="2"/>
  <polygon points="492,218 498,230 504,218" fill="#006BA6"/>
  <line x1="690" y1="164" x2="690" y2="218" stroke="#006BA6" stroke-width="2"/>
  <polygon points="684,218 690,230 696,218" fill="#006BA6"/>
  <line x1="882" y1="164" x2="882" y2="218" stroke="#006BA6" stroke-width="2"/>
  <polygon points="876,218 882,230 888,218" fill="#006BA6"/>
  <line x1="1074" y1="164" x2="1074" y2="218" stroke="#006BA6" stroke-width="2"/>
  <polygon points="1068,218 1074,230 1080,218" fill="#006BA6"/>

  <!-- Label -->
  <text x="600" y="205" text-anchor="middle" fill="#006BA6" font-size="11" font-weight="bold" font-style="italic">Natural-Language Prompts</text>

  <!-- CHAT UI / STUDIO -->
  <rect x="40" y="232" width="1120" height="88" rx="14" fill="#1e1e2e"/>
  <!-- Sample prompt boxes -->
  <rect x="55" y="244" width="200" height="24" rx="6" fill="#3a3a55"/>
  <text x="65" y="261" fill="#aaaaaa" font-size="10">"Generate epics for sweep..."</text>
  <rect x="270" y="244" width="210" height="24" rx="6" fill="#3a3a55"/>
  <text x="280" y="261" fill="#aaaaaa" font-size="10">"Design microservice arch..."</text>
  <rect x="495" y="244" width="210" height="24" rx="6" fill="#3a3a55"/>
  <text x="505" y="261" fill="#aaaaaa" font-size="10">"Implement SweepScheduler..."</text>
  <rect x="720" y="244" width="210" height="24" rx="6" fill="#3a3a55"/>
  <text x="730" y="261" fill="#aaaaaa" font-size="10">"Generate BDD scenarios..."</text>
  <rect x="945" y="244" width="200" height="24" rx="6" fill="#3a3a55"/>
  <text x="955" y="261" fill="#aaaaaa" font-size="10">"Create CI/CD pipeline..."</text>

  <text x="600" y="293" text-anchor="middle" fill="#ffffff" font-size="22" font-weight="bold">Chat UI / Studio</text>
  <text x="600" y="312" text-anchor="middle" fill="#aaaabb" font-size="11">Single Interface for the Entire SDLC  |  Multi-turn Conversations  |  Iterative Refinement</text>

  <!-- Arrow: Chat UI to AI Agent -->
  <line x1="600" y1="320" x2="600" y2="366" stroke="#0096D6" stroke-width="3"/>
  <polygon points="592,366 600,380 608,366" fill="#0096D6"/>
  <text x="625" y="354" fill="#0096D6" font-size="11" font-weight="bold">Prompts</text>

  <!-- AI AGENT ENGINE -->
  <rect x="280" y="382" width="640" height="80" rx="14" fill="#006BA6"/>
  <text x="600" y="412" text-anchor="middle" fill="#ffffff" font-size="20" font-weight="bold">AI Agent Engine</text>
  <text x="600" y="432" text-anchor="middle" fill="#d0e8f8" font-size="11">LLM-Powered  |  Context-Aware  |  Multi-Modal Generation</text>
  <text x="600" y="450" text-anchor="middle" fill="#d0e8f8" font-size="10">Code Gen  |  Document Gen  |  Test Gen  |  Config Gen  |  Diagram Gen  |  Review Analysis</text>

  <!-- Arrow: AI Agent to Artifacts -->
  <line x1="600" y1="462" x2="600" y2="498" stroke="#008080" stroke-width="3"/>
  <polygon points="592,498 600,512 608,498" fill="#008080"/>
  <text x="625" y="490" fill="#008080" font-size="11" font-weight="bold">Generates</text>

  <!-- GENERATED ARTIFACTS label -->
  <text x="600" y="528" text-anchor="middle" fill="#666666" font-size="13" font-weight="bold">GENERATED ARTIFACTS</text>

  <!-- Artifact: Epics -->
  <rect x="30" y="540" width="175" height="58" rx="8" fill="#ffffff" stroke="#006BA6" stroke-width="2"/>
  <text x="117" y="562" text-anchor="middle" fill="#006BA6" font-size="12" font-weight="bold">Epics and Stories</text>
  <text x="117" y="578" text-anchor="middle" fill="#666666" font-size="10">Acceptance Criteria, BRDs</text>
  <text x="117" y="591" text-anchor="middle" fill="#666666" font-size="10">Edge Cases</text>

  <!-- Artifact: Design -->
  <rect x="222" y="540" width="175" height="58" rx="8" fill="#ffffff" stroke="#008080" stroke-width="2"/>
  <text x="309" y="562" text-anchor="middle" fill="#008080" font-size="12" font-weight="bold">Design Artifacts</text>
  <text x="309" y="578" text-anchor="middle" fill="#666666" font-size="10">OpenAPI, DDD, ADRs</text>
  <text x="309" y="591" text-anchor="middle" fill="#666666" font-size="10">DB Schemas, Diagrams</text>

  <!-- Artifact: Code -->
  <rect x="414" y="540" width="175" height="58" rx="8" fill="#ffffff" stroke="#007A33" stroke-width="2"/>
  <text x="501" y="562" text-anchor="middle" fill="#007A33" font-size="12" font-weight="bold">Code</text>
  <text x="501" y="578" text-anchor="middle" fill="#666666" font-size="10">Spring Boot, JPA</text>
  <text x="501" y="591" text-anchor="middle" fill="#666666" font-size="10">Controllers, Services</text>

  <!-- Artifact: Tests -->
  <rect x="606" y="540" width="175" height="58" rx="8" fill="#ffffff" stroke="#6B21A8" stroke-width="2"/>
  <text x="693" y="562" text-anchor="middle" fill="#6B21A8" font-size="12" font-weight="bold">Test Suites</text>
  <text x="693" y="578" text-anchor="middle" fill="#666666" font-size="10">JUnit, BDD/Gherkin</text>
  <text x="693" y="591" text-anchor="middle" fill="#666666" font-size="10">Test Data, Coverage</text>

  <!-- Artifact: Review -->
  <rect x="798" y="540" width="175" height="58" rx="8" fill="#ffffff" stroke="#005a8c" stroke-width="2"/>
  <text x="885" y="562" text-anchor="middle" fill="#005a8c" font-size="12" font-weight="bold">Review Reports</text>
  <text x="885" y="578" text-anchor="middle" fill="#666666" font-size="10">Quality Analysis</text>
  <text x="885" y="591" text-anchor="middle" fill="#666666" font-size="10">PR Summaries</text>

  <!-- Artifact: DevOps -->
  <rect x="990" y="540" width="175" height="58" rx="8" fill="#ffffff" stroke="#E86C00" stroke-width="2"/>
  <text x="1077" y="562" text-anchor="middle" fill="#E86C00" font-size="12" font-weight="bold">DevOps Configs</text>
  <text x="1077" y="578" text-anchor="middle" fill="#666666" font-size="10">Dockerfiles, CI/CD</text>
  <text x="1077" y="591" text-anchor="middle" fill="#666666" font-size="10">K8s Manifests</text>

  <!-- Connector lines: Artifacts to Review Gate -->
  <line x1="117" y1="598" x2="117" y2="620" stroke="#999999" stroke-width="1.5"/>
  <line x1="309" y1="598" x2="309" y2="620" stroke="#999999" stroke-width="1.5"/>
  <line x1="501" y1="598" x2="501" y2="620" stroke="#999999" stroke-width="1.5"/>
  <line x1="693" y1="598" x2="693" y2="620" stroke="#999999" stroke-width="1.5"/>
  <line x1="885" y1="598" x2="885" y2="620" stroke="#999999" stroke-width="1.5"/>
  <line x1="1077" y1="598" x2="1077" y2="620" stroke="#999999" stroke-width="1.5"/>

  <!-- HUMAN REVIEW GATE -->
  <rect x="100" y="620" width="1000" height="36" rx="18" fill="#ffffff" stroke="#E86C00" stroke-width="2"/>
  <text x="600" y="644" text-anchor="middle" fill="#E86C00" font-size="13" font-weight="bold">Human Review and Approval Gate  -  Every artifact reviewed before shipping</text>

  <!-- Arrows: Review Gate to Target Systems -->
  <line x1="250" y1="656" x2="170" y2="700" stroke="#006BA6" stroke-width="2"/>
  <polygon points="164,696 170,710 178,698" fill="#006BA6"/>
  <line x1="420" y1="656" x2="410" y2="700" stroke="#008080" stroke-width="2"/>
  <polygon points="404,696 410,710 418,698" fill="#008080"/>
  <line x1="600" y1="656" x2="600" y2="700" stroke="#006BA6" stroke-width="2"/>
  <polygon points="594,700 600,714 606,700" fill="#006BA6"/>
  <line x1="780" y1="656" x2="830" y2="700" stroke="#006BA6" stroke-width="2"/>
  <polygon points="824,696 830,710 838,698" fill="#006BA6"/>
  <line x1="950" y1="656" x2="1060" y2="700" stroke="#E86C00" stroke-width="2"/>
  <polygon points="1054,696 1060,710 1068,698" fill="#E86C00"/>

  <!-- TARGET SYSTEMS label -->
  <text x="600" y="695" text-anchor="middle" fill="#666666" font-size="13" font-weight="bold">TARGET SYSTEMS</text>

  <!-- Jira -->
  <rect x="70" y="710" width="180" height="52" rx="10" fill="#002B5C"/>
  <text x="160" y="738" text-anchor="middle" fill="#ffffff" font-size="15" font-weight="bold">Jira</text>
  <text x="160" y="754" text-anchor="middle" fill="#aaaacc" font-size="10">Epics, Stories, Sprints</text>

  <!-- GitHub -->
  <rect x="300" y="710" width="180" height="52" rx="10" fill="#002B5C"/>
  <text x="390" y="738" text-anchor="middle" fill="#ffffff" font-size="15" font-weight="bold">GitHub</text>
  <text x="390" y="754" text-anchor="middle" fill="#aaaacc" font-size="10">Code, Specs, PRs</text>

  <!-- CI/CD -->
  <rect x="530" y="710" width="180" height="52" rx="10" fill="#002B5C"/>
  <text x="620" y="738" text-anchor="middle" fill="#ffffff" font-size="15" font-weight="bold">CI / CD</text>
  <text x="620" y="754" text-anchor="middle" fill="#aaaacc" font-size="10">Build, Test, Deploy</text>

  <!-- PCF / K8s -->
  <rect x="760" y="710" width="180" height="52" rx="10" fill="#002B5C"/>
  <text x="850" y="738" text-anchor="middle" fill="#ffffff" font-size="15" font-weight="bold">PCF / K8s</text>
  <text x="850" y="754" text-anchor="middle" fill="#aaaacc" font-size="10">Staging and Production</text>

  <!-- Grafana -->
  <rect x="990" y="710" width="170" height="52" rx="10" fill="#E86C00"/>
  <text x="1075" y="738" text-anchor="middle" fill="#ffffff" font-size="14" font-weight="bold">Grafana</text>
  <text x="1075" y="754" text-anchor="middle" fill="#ffe0c0" font-size="10">Observability</text>

  <!-- Footer -->
  <rect x="0" y="790" width="1200" height="30" fill="#002B5C"/>
  <text x="600" y="809" text-anchor="middle" fill="#aaaacc" font-size="11">Mphasis 2026  |  Bank Sweep Modernization  |  Pure Greenfield  |  All Personas via Chat UI / Studio  |  No Legacy Code</text>

</svg>